<?xml version="1.0" encoding="UTF-8" standalone="no"?><!-- Generator: Gravit.io --><svg xmlns="http://www.w3.org/2000/svg" xmlns:xlink="http://www.w3.org/1999/xlink" style="isolation:isolate" viewBox="0 0 600 600" width="600pt" height="600pt"><defs><clipPath id="_clipPath_B4sit74CbP3UCbvg7yRy66x0w8jCncga"><rect width="600" height="600"/></clipPath></defs><g clip-path="url(#_clipPath_B4sit74CbP3UCbvg7yRy66x0w8jCncga)"><path d=" M 100 213.4 L 200 213.4 L 150 300 L 100 213.4 Z " fill="rgb(74,214,208)"/><path d=" M 200 213.4 L 300 213.4 L 250 300 L 200 213.4 Z " fill="rgb(74,214,208)"/><path d=" M 150 300 L 250 300 L 200 386.6 L 150 300 Z " fill="rgb(74,214,208)"/><path d=" M 150 300 L 250 300 L 200 213.4 L 150 300 Z " fill="rgb(74,214,208)"/><path d=" M 0 386.6 L 100 386.6 L 50 473.2 L 0 386.6 Z " fill="rgb(109,181,253)"/><path d=" M 100 386.6 L 200 386.6 L 150 473.2 L 100 386.6 Z " fill="rgb(109,181,253)"/><path d=" M 50 473.2 L 150 473.2 L 100 559.8 L 50 473.2 Z " fill="rgb(109,181,253)"/><path d=" M 50 473.2 L 150 473.2 L 100 386.6 L 50 473.2 Z " fill="rgb(109,181,253)"/><path d=" M 200 386.6 L 300 386.6 L 250 473.2 L 200 386.6 Z " fill="rgb(84,211,253)"/><path d=" M 300 386.6 L 400 386.6 L 350 473.2 L 300 386.6 Z " fill="rgb(84,211,253)"/><path d=" M 250 473.2 L 350 473.2 L 300 559.8 L 250 473.2 Z " fill="rgb(84,211,253)"/><path d=" M 250 473.2 L 350 473.2 L 300 386.6 L 250 473.2 Z " fill="rgb(84,211,253)"/><path d=" M 0 386.6 L 100 386.6 L 50 300 L 0 386.6 Z " fill="rgb(109,181,253)"/><path d=" M 100 386.6 L 200 386.6 L 150 300 L 100 386.6 Z " fill="rgb(109,181,253)"/><path d=" M 50 300 L 150 300 L 100 213.4 L 50 300 Z " fill="rgb(109,181,253)"/><path d=" M 50 300 L 150 300 L 100 386.6 L 50 300 Z " fill="rgb(109,181,253)"/><path d=" M 100 213.4 L 200 213.4 L 150 126.8 L 100 213.4 Z " fill="rgb(147,252,209)"/><path d=" M 200 213.4 L 300 213.4 L 250 126.8 L 200 213.4 Z " fill="rgb(147,252,209)"/><path d=" M 150 126.8 L 250 126.8 L 200 40.2 L 150 126.8 Z " fill="rgb(147,252,209)"/><path d=" M 150 126.8 L 250 126.8 L 200 213.4 L 150 126.8 Z " fill="rgb(147,252,209)"/><path d=" M 100 559.8 L 200 559.8 L 150 473.2 L 100 559.8 Z " fill="rgb(109,181,253)"/><path d=" M 200 559.8 L 300 559.8 L 250 473.2 L 200 559.8 Z " fill="rgb(109,181,253)"/><path d=" M 150 473.2 L 250 473.2 L 200 386.6 L 150 473.2 Z " fill="rgb(109,181,253)"/><path d=" M 150 473.2 L 250 473.2 L 200 559.8 L 150 473.2 Z " fill="rgb(109,181,253)"/><path d=" M 400 386.6 L 500 386.6 L 450 473.2 L 400 386.6 Z " fill="rgb(157,248,254)"/><path d=" M 500 386.6 L 600 386.6 L 550 473.2 L 500 386.6 Z " fill="rgb(157,248,254)"/><path d=" M 450 473.2 L 550 473.2 L 500 559.8 L 450 473.2 Z " fill="rgb(157,248,254)"/><path d=" M 450 473.2 L 550 473.2 L 500 386.6 L 450 473.2 Z " fill="rgb(157,248,254)"/><path d=" M 300 559.8 L 400 559.8 L 350 473.2 L 300 559.8 Z " fill="rgb(157,248,254)"/><path d=" M 400 559.8 L 500 559.8 L 450 473.2 L 400 559.8 Z " fill="rgb(157,248,254)"/><path d=" M 350 473.2 L 450 473.2 L 400 386.6 L 350 473.2 Z " fill="rgb(157,248,254)"/><path d=" M 350 473.2 L 450 473.2 L 400 559.8 L 350 473.2 Z " fill="rgb(157,248,254)"/><path d=" M 400 386.6 L 500 386.6 L 450 300 L 400 386.6 Z " fill="rgb(157,248,254)"/><path d=" M 500 386.6 L 600 386.6 L 550 300 L 500 386.6 Z " fill="rgb(157,248,254)"/><path d=" M 450 300 L 550 300 L 500 213.4 L 450 300 Z " fill="rgb(157,248,254)"/><path d=" M 450 300 L 550 300 L 500 386.6 L 450 300 Z " fill="rgb(157,248,254)"/><path d=" M 200 386.6 L 300 386.6 L 250 300 L 200 386.6 Z " fill="rgb(66,227,230)"/><path d=" M 300 386.6 L 400 386.6 L 350 300 L 300 386.6 Z " fill="rgb(66,227,230)"/><path d=" M 250 300 L 350 300 L 300 213.4 L 250 300 Z " fill="rgb(66,227,230)"/><path d=" M 250 300 L 350 300 L 300 386.6 L 250 300 Z " fill="rgb(66,227,230)"/><path d=" M 300 213.4 L 400 213.4 L 350 126.8 L 300 213.4 Z " fill="rgb(147,252,209)"/><path d=" M 400 213.4 L 500 213.4 L 450 126.8 L 400 213.4 Z " fill="rgb(147,252,209)"/><path d=" M 350 126.8 L 450 126.8 L 400 40.2 L 350 126.8 Z " fill="rgb(147,252,209)"/><path d=" M 350 126.8 L 450 126.8 L 400 213.4 L 350 126.8 Z " fill="rgb(147,252,209)"/><path d=" M 200 40.2 L 300 40.2 L 250 126.8 L 200 40.2 Z " fill="rgb(147,252,209)"/><path d=" M 300 40.2 L 400 40.2 L 350 126.8 L 300 40.2 Z " fill="rgb(147,252,209)"/><path d=" M 250 126.8 L 350 126.8 L 300 213.4 L 250 126.8 Z " fill="rgb(147,252,209)"/><path d=" M 250 126.8 L 350 126.8 L 300 40.2 L 250 126.8 Z " fill="rgb(147,252,209)"/><path d=" M 300 213.4 L 400 213.4 L 350 300 L 300 213.4 Z " fill="rgb(103,246,231)"/><path d=" M 400 213.4 L 500 213.4 L 450 300 L 400 213.4 Z " fill="rgb(103,246,231)"/><path d=" M 350 300 L 450 300 L 400 386.6 L 350 300 Z " fill="rgb(103,246,231)"/><path d=" M 350 300 L 450 300 L 400 213.4 L 350 300 Z " fill="rgb(103,246,231)"/></g></svg>