<?xml version="1.0" encoding="UTF-8" standalone="no"?>
<svg xmlns="http://www.w3.org/2000/svg" xmlns:xlink="http://www.w3.org/1999/xlink" style="isolation:isolate" viewBox="0 0 200 200" width="200pt" height="200pt">
  <mask id="mask-1" x="-200%" y="-200%" width="400%" height="400%">
    <rect x="-200%" y="-200%" width="400%" height="400%" style="fill:white;"/>
    <path d=" M 33.25 129.95 L 33.25 100 L 33.25 70.05 C 33.25 59.482 40.68 55.192 49.833 60.476 L 75.77 75.451 L 101.708 90.426 C 110.86 95.71 110.86 104.29 101.708 109.574 L 75.77 124.549 L 49.833 139.524 C 40.68 144.808 33.25 140.518 33.25 129.95 Z " fill="black" stroke="none"/>
  </mask>
  <mask id="mask-2" x="-200%" y="-200%" width="400%" height="400%">
    <rect x="-200%" y="-200%" width="400%" height="400%" style="fill:white;"/>
    <path d=" M 112 100 C 112 92.273 116.13 85.132 121.146 86 C 125.865 86.817 130.291 92.273 130.291 100 C 130.291 107.727 125.707 113.058 121.146 114 C 116.143 115.033 112 107.727 112 100 Z " fill="black" stroke="none"/>
  </mask>
  <path d="M 91.251 23 L 169.331 23 C 175.059 23 179.709 27.65 179.709 33.378 L 179.709 166.622 C 179.709 172.35 175.059 177 169.331 177 L 91.251 177 C 85.523 177 80.873 172.35 80.873 166.622 L 80.873 33.378 C 80.873 27.65 85.523 23 91.251 23 Z" mask="url(#mask-1)" style="fill:none;stroke:#323232;stroke-width:8;stroke-linecap:square;stroke-miterlimit:2;"/>
  <path d=" M 47.874 119.65 L 47.874 100 L 47.874 80.35 C 47.874 73.417 52.749 70.602 58.753 74.069 L 75.77 83.894 L 92.788 93.719 C 98.792 97.185 98.792 102.815 92.788 106.281 L 75.77 116.106 L 58.753 125.931 C 52.749 129.398 47.874 126.583 47.874 119.65 Z " fill="#323232"/>
  <line x1="20.291" y1="100" x2="73.858" y2="100" stroke-width="16" stroke="#323232" stroke-linejoin="miter" stroke-linecap="round" stroke-miterlimit="3"/>
  <path d=" M 110.572 12.877 L 169.01 26.123 C 173.581 27.159 177.291 31.805 177.291 36.491 L 177.291 163.509 C 177.291 168.195 173.581 172.841 169.01 173.877 L 110.572 187.123 C 106.002 188.159 102.291 185.195 102.291 180.509 L 102.291 19.491 C 102.291 14.805 106.002 11.841 110.572 12.877 Z " fill="#323232" mask="url(#mask-2)"/>
</svg>
