<?xml version="1.0" encoding="UTF-8" standalone="no"?>
<svg xmlns="http://www.w3.org/2000/svg" xmlns:xlink="http://www.w3.org/1999/xlink" style="isolation:isolate" viewBox="0 0 200 200" width="200pt" height="200pt">
  <rect width="200" height="200" style="fill:rgb(0,0,0)" fill-opacity="0"/>
  <path d=" M 142.093 169.585 L 101.795 149.77 C 100.804 149.283 99.196 149.283 98.205 149.77 L 57.907 169.585 C 55.117 170.957 53.212 169.572 53.654 166.495 L 60.046 122.046 C 60.204 120.954 59.707 119.424 58.937 118.633 L 27.639 86.43 C 25.473 84.201 26.201 81.96 29.264 81.43 L 73.513 73.774 C 74.6 73.586 75.901 72.641 76.417 71.664 L 97.372 31.947 C 98.822 29.198 101.178 29.198 102.628 31.947 L 123.583 71.664 C 124.099 72.641 125.4 73.586 126.487 73.774 L 170.736 81.43 C 173.799 81.96 174.527 84.201 172.361 86.43 L 141.063 118.633 C 140.293 119.424 139.796 120.954 139.954 122.046 L 146.346 166.495 C 146.788 169.572 144.883 170.957 142.093 169.585 Z " fill="rgb(50,50,50)"/>
</svg>
